<svg id="Capa_1" enable-background="new 0 0 512 512" height="30" viewBox="0 0 512 512" width="30" xmlns="http://www.w3.org/2000/svg"><g><g><g><g><g><path d="m221.805 442.383-183.538-184.197c-51.028-51.028-51.028-134.119.038-185.185 24.737-24.738 57.628-38.361 92.612-38.362 34.984 0 67.874 13.623 92.612 38.361l32.471 32.473 32.476-32.473c51.067-51.067 134.159-51.066 185.224 0 51.066 51.067 51.066 134.159 0 185.224l-183.505 184.16z" fill="#fc652c"/></g></g></g></g><g><path d="m473.7 73c-51.065-51.066-134.157-51.068-185.225 0l-32.475 32.473v335.521l34.195 1.39 183.505-184.16c51.067-51.065 51.067-134.157 0-185.224z" fill="#ed3a19"/></g><g><path d="m221.805 308.377v134.006l34.195 34.318 34.195-34.317v-134.007z" fill="#c4e945"/></g><path d="m213.176 222.189c0-23.632 19.157-42.789 42.789-42.789s23.632 85.578 0 85.578-42.789-19.157-42.789-42.789z" fill="#fcced3"/><g><path d="m298.754 222.189c0-23.62-19.139-42.769-42.754-42.788v85.576c23.616-.019 42.754-19.168 42.754-42.788z" fill="#f9a7b0"/></g><g><path d="m256 309.038v168.324l34.195-34.318v-134.006z" fill="#9edb3d"/></g><g><g><g><path d="m256 293.338h-8.415c-15.642 0-31.179-2.546-46.002-7.538l-.754-.254c-25.346-8.535-42.932-31.291-44.802-57.969l-1.803-25.738-29.933 2.097 1.803 25.738c2.719 38.802 28.296 71.896 65.159 84.311l.753.254c17.91 6.031 36.681 9.107 55.579 9.107h8.415z" fill="#fcced3"/></g></g></g><path d="m320.656 313.397c34.611-12.229 58.88-42.46 63.338-78.895l3.645-29.792-29.784-3.646-3.645 29.792c-3.045 24.882-19.914 45.896-43.55 54.247-15.424 5.45-31.662 8.234-48.02 8.234h-6.64v30.007h6.641c19.762.001 39.381-3.363 58.015-9.947z" fill="#f9a7b0"/></g></svg>