<?xml version="1.0" encoding="utf-8"?>
<!-- Generator: Adobe Illustrator 24.0.1, SVG Export Plug-In . SVG Version: 6.00 Build 0)  -->
<svg version="1.1" id="Capa_1" xmlns="http://www.w3.org/2000/svg" xmlns:xlink="http://www.w3.org/1999/xlink" x="0px" y="0px"
	 viewBox="0 0 512 512" style="enable-background:new 0 0 512 512;" xml:space="preserve">
<style type="text/css">
	.st0{fill:#A2C6FD;}
	.st1{opacity:0.35;fill:#7898D5;}
	.st2{fill:#F5F0F0;}
	.st3{fill:#E8DED8;}
	.st4{fill:#DD636E;}
</style>
<g>
	<g>
		<g>
			<path class="st0" d="M256,512c258.5-105.8,251.1-403.7,251.1-403.7C425.8,27.1,256,0,256,0S86.2,27.1,4.9,108.3
				C4.9,108.3-2.5,406.1,256,512z"/>
			<path class="st1" d="M256,512C-2.5,406.1,4.9,108.3,4.9,108.3C84.4,28.8,248.7,1.2,255.8,0c-5.5,1.1-107,21.3-178.6,76.3
				c-22.5,17.3-34.6,45-32.2,73.3C52.2,235.1,87.3,430.5,256,512z"/>
			<path class="st2" d="M256,451.8C176.1,412.9,119.1,347,86.6,255.7c-18-50.5-23.9-96.9-25.8-123.3C117.6,88.8,212.2,63.9,256,55.8
				C299.7,64,394.5,89,451.2,132.4c-1.9,26.4-7.8,72.8-25.8,123.3C392.9,347,335.9,412.9,256,451.8z"/>
			<path class="st3" d="M256,451.8C176.1,412.9,119.2,347,86.6,255.7c-18-50.5-23.9-96.9-25.8-123.3C117.7,88.8,212.2,63.9,256,55.8
				c-22.1,4.8-59.3,15.2-96.2,31.7c-47,21.1-73.1,72.1-62.5,122.6c3,14.5,6.9,29.8,11.8,45.6C137.3,347,186.7,412.9,256,451.8z"/>
		</g>
	</g>
	<g>
		<path class="st4" d="M339.4,198.5c-10.2-0.4-20.3-0.8-30.5-1.1c-6.1-0.2-11.1-5.1-11.2-11.2c-0.3-10.2-0.6-20.3-1.1-30.5
			c-0.2-5.3-4-9.8-9.2-10.8c-21-4.1-41.9-4.1-62.9,0c-5.2,1-8.9,5.5-9.2,10.8c-0.4,10.2-0.8,20.3-1.1,30.5
			c-0.2,6.1-5.1,11.1-11.2,11.2c-10.2,0.3-20.3,0.6-30.5,1.1c-5.3,0.2-9.8,4-10.8,9.2c-4.1,21-4.1,41.9,0,62.9
			c1,5.2,5.5,8.9,10.8,9.2c10.2,0.4,20.3,0.8,30.5,1.1c6.1,0.2,11.1,5.1,11.2,11.2c0.3,10.2,0.6,20.3,1.1,30.5
			c0.2,5.3,4,9.8,9.2,10.8c21,4.1,41.9,4.1,62.9,0c5.2-1,8.9-5.5,9.2-10.8c0.4-10.2,0.8-20.3,1.1-30.5c0.2-6.1,5.1-11.1,11.2-11.2
			c10.2-0.3,20.3-0.6,30.5-1.1c5.3-0.2,9.8-4,10.8-9.2c4.1-21,4.1-41.9,0-62.9C349.2,202.4,344.7,198.7,339.4,198.5L339.4,198.5z"/>
	</g>
</g>
</svg>
