<svg id="Layer_1" enable-background="new 0 0 512 512" height="30" viewBox="0 0 512 512" width="30" xmlns="http://www.w3.org/2000/svg"><g><path d="m143.024 187.082h173.07v247.836h-173.07z" fill="#ffcebf"/><path d="m143.024 187.082v121.242l116.273 5.75c14.502.717 25.892 12.684 25.892 27.204v93.639h30.905v-247.835z" fill="#ffb09e"/><path d="m357.408 103.911v129.637c0 35.745-28.97 64.73-64.696 64.73h-114.158c-42.574 0-77.078-34.535-77.078-77.119v-117.248z" fill="#ffcebf"/><path d="m325.414 146.299s-88.128 7.431-106.46 63.457c-25.147 76.859 50.378 98.625 106.46 51.943z" fill="#ffb09e"/><path d="m512 68.006v51.775c0 3.498-3.187 6.127-6.619 5.449-75.054-14.841-225.447-35.699-317.053 11.294-82.837 42.495-143.669 52.354-182.28 52.354-.175 0-.35 0-.525-.001-3.057-.008-5.523-2.499-5.523-5.555v-50.778c0-3.07 2.484-5.56 5.554-5.551 5.045.014 10.784-.199 17.213-.771 27.702-2.452 74.019-12.208 137.354-44.689 104.685-53.698 262.102-35.069 347.362-18.983 2.624.494 4.517 2.785 4.517 5.456z" fill="#ee6161"/><path d="m197.457 154.577c17.67 0 31.995-14.325 31.995-31.995v-78.273c0-17.67-14.325-31.995-31.995-31.995-17.67 0-31.995 14.325-31.995 31.995v78.272c0 17.671 14.325 31.996 31.995 31.996z" fill="#ffcebf"/><path d="m197.457 12.315c-.886 0-1.762.046-2.63.116 2.371 4.468 3.719 9.562 3.719 14.973v78.272c0 16.784-12.926 30.539-29.365 31.878 5.372 10.124 16.016 17.022 28.275 17.022 17.67 0 31.995-14.325 31.995-31.995v-78.272c.001-17.67-14.324-31.994-31.994-31.994z" fill="#ffb09e"/><path d="m261.424 157.817c17.67 0 31.995-14.325 31.995-31.995v-93.827c0-17.67-14.325-31.995-31.995-31.995-17.67 0-31.995 14.325-31.995 31.995v93.827c0 17.67 14.325 31.995 31.995 31.995z" fill="#ffcebf"/><path d="m261.424 0c-.598 0-1.191.019-1.781.052 1.838 4.036 2.87 8.517 2.87 13.241v93.827c0 17.072-13.372 31.018-30.214 31.943 5.037 11.06 16.179 18.754 29.124 18.754 17.67 0 31.995-14.325 31.995-31.995v-93.827c.001-17.67-14.324-31.995-31.994-31.995z" fill="#ffb09e"/><path d="m325.414 157.817c17.67 0 31.995-14.325 31.995-31.995v-93.827c-.001-17.67-14.325-31.995-31.995-31.995-17.67 0-31.995 14.325-31.995 31.995v93.827c0 17.67 14.324 31.995 31.995 31.995z" fill="#ffcebf"/><path d="m325.414 0c-1.176 0-2.336.068-3.479.192 2.898 4.814 4.568 10.451 4.568 16.479v93.827c0 16.494-12.483 30.069-28.516 31.803 5.597 9.296 15.785 15.516 27.427 15.516 17.67 0 31.995-14.325 31.995-31.995v-93.827c-.001-17.67-14.325-31.995-31.995-31.995z" fill="#ffb09e"/><path d="m133.468 171.482c17.67 0 31.995-14.325 31.995-31.995v-78.272c0-17.67-14.325-31.995-31.995-31.995-17.67 0-31.995 14.325-31.995 31.995v78.272c0 17.671 14.324 31.995 31.995 31.995z" fill="#ffcebf"/><path d="m133.468 29.22c-.503 0-1.003.015-1.501.038 1.664 3.873 2.59 8.138 2.59 12.621v78.272c0 17.167-13.521 31.173-30.494 31.957 4.897 11.393 16.217 19.374 29.405 19.374 17.67 0 31.995-14.325 31.995-31.995v-78.272c-.001-17.67-14.325-31.995-31.995-31.995z" fill="#ffb09e"/><path d="m236.935 237.82c3.281-19.016 17.676-43.253 17.676-43.253 17.24-22.773 36.013-35.771 62.523-34.868 8.144.278 24.339-5.324 26.528-15.048.462-2.052-.561-4.153-2.465-5.042l-15.264-7.13c-27.102-12.659-34.709-45.605-31.272-60.142 3.673-15.532 11.859-22.737 17.761-19.981 0 0 67.636 30.682 87.2 40.384 6.776 3.36 11.013 10.323 10.902 17.892l-.832 56.353c-.303 20.535-7.149 40.437-19.54 56.805l-28.891 38.163c-39.556 52.212-74.758 41.154-121.717 36.323.001 0-7.729-30.782-2.609-60.456z" fill="#ffcebf"/><path d="m399.623 92.74c-19.564-9.702-87.2-40.384-87.2-40.384-4.584-2.141-10.538 1.753-14.693 10.866 21.284 9.71 57.522 26.327 70.988 33.005 6.776 3.36 11.014 10.323 10.902 17.892l-.832 56.353c-.303 20.535-7.149 40.437-19.54 56.805l-28.891 38.163c-16.276 21.483-31.815 32.249-47.739 37.15 27.501.949 52.092-5.59 78.644-40.637l28.891-38.163c12.391-16.368 19.237-36.27 19.54-56.805l.832-56.353c.112-7.568-4.126-14.531-10.902-17.892z" fill="#ffb09e"/><path d="m320.062 512h-181.907c-1.543 0-2.793-1.251-2.793-2.793v-100.225c0-2.276 1.845-4.121 4.121-4.121h179.251c2.276 0 4.121 1.845 4.121 4.121v100.225c0 1.542-1.251 2.793-2.793 2.793z" fill="#ee6161"/><path d="m291.95 404.861v107.139h28.112c1.543 0 2.793-1.251 2.793-2.793v-100.256c0-2.259-1.845-4.09-4.121-4.09z" fill="#e94444"/></g></svg>