<svg height="30" viewBox="0 0 512 512.001" width="30" xmlns="http://www.w3.org/2000/svg"><path d="m388 128h-132l-60 64 60 124 132-60c35.347656 0 64-28.652344 64-64 0-35.34375-28.652344-64-64-64zm0 0" fill="#3ac7cf"/><path d="m199 128c-35.34375 0-64 28.65625-64 64 0 35.347656 28.65625 64 64 64l57 60v-188zm0 0" fill="#74dce2"/><path d="m448 384h-60l-132-60-60 124 60 64h48.75l15-10 15 10h49l15-10 15 10h34.25c35.347656 0 64-28.652344 64-64 0-35.34375-28.652344-64-64-64zm0 0" fill="#3ac7cf"/><path d="m64 384c-30.179688 0-55.464844 20.898438-62.214844 49.007812l28.214844 14.992188-28.210938 15.007812c6.753907 28.101563 32.035157 48.992188 62.210938 48.992188h192v-188l-162 60zm0 0" fill="#74dce2"/><path d="m256 433.007812-30 15 30 15c26.902344.136719 48.75 22.058594 48.75 48.992188h30c0-43.476562-35.304688-78.855469-78.75-78.992188zm0 0" fill="#adf2f5"/><path d="m255.75 433-253.96875.015625c-1.152344 4.808594-1.78125 9.824219-1.78125 14.984375 0 5.175781.628906 10.195312 1.789062 15.015625l253.960938-.015625c.085938 0 .167969.007812.25.007812v-30c-.082031 0-.167969-.007812-.25-.007812zm0 0" fill="#fff"/><path d="m413.75 512h-30c0-70.578125-57.421875-128-128-128v-30c87.121094 0 158 70.878906 158 158zm0 0" fill="#adf2f5"/><path d="m230 98v30c70.578125 0 128 57.421875 128 128v30h30v-30c0-87.121094-70.878906-158-158-158zm0 0" fill="#adf2f5"/><path d="m450.214844 305c-6.753906-28.105469-32.035156-49-62.214844-49h-132l-60 64 60 64h132c30.179688 0 55.460938-20.894531 62.214844-49l-28.214844-15zm0 0" fill="#01939d"/><path d="m124 256-15 10-15-10c-35.34375 0-64 28.65625-64 64 0 35.347656 28.65625 64 64 64h162v-128zm0 0" fill="#01b1bc"/><path d="m452 320c0-5.167969-.628906-10.1875-1.785156-15h-194.214844l-30 15 30 15h194.214844c1.15625-4.8125 1.785156-9.832031 1.785156-15zm0 0" fill="#3ac7cf"/><path d="m173 305c-27.019531 0-49-21.980469-49-49h-30c0 43.5625 35.441406 79 79 79h83v-30zm0 0" fill="#74dce2"/><path d="m313 0-15 10-15-10h-27l-60 64 60 64h57c35.347656 0 64-28.652344 64-64 0-35.34375-28.652344-64-64-64zm0 0" fill="#01b1bc"/><path d="m199 0c-30.175781 0-55.460938 20.894531-62.214844 49l28.214844 15-28.214844 15c6.753906 28.105469 32.035156 49 62.214844 49h57v-128zm0 0" fill="#3ac7cf"/><path d="m256 43.765625-20 16.046875 20 16.046875c32.886719-9.550781 57-39.933594 57-75.859375h-30c0 19.109375-11.003906 35.6875-27 43.765625zm0 0" fill="#74dce2"/><path d="m256 75.859375v-32.09375c-6.621094 3.339844-14.089844 5.234375-22 5.234375h-97.214844c-1.15625 4.8125-1.785156 9.832031-1.785156 15s.628906 10.1875 1.785156 15h97.214844c7.636719 0 15.011719-1.109375 22-3.140625zm0 0" fill="#adf2f5"/></svg>